<svg id="svg" version="1.1" xmlns="http://www.w3.org/2000/svg" xmlns:xlink="http://www.w3.org/1999/xlink" width="400" height="400" viewBox="0, 0, 400,400"><g id="svgg"><path id="path0" d="M109.817 0.479 C 109.386 0.728,106.236 1.084,102.817 1.270 C 95.512 1.665,92.443 2.158,90.222 3.291 C 88.979 3.925,87.388 4.196,83.400 4.453 C 77.182 4.854,76.428 4.997,73.660 6.293 C 72.000 7.071,70.496 7.372,66.942 7.637 C 61.770 8.023,60.003 8.420,58.020 9.638 C 57.031 10.245,55.558 10.583,52.820 10.829 C 48.674 11.202,47.275 11.527,45.205 12.597 C 44.464 12.981,42.005 13.538,39.742 13.835 C 36.812 14.220,34.959 14.707,33.313 15.525 C 31.835 16.260,29.788 16.842,27.642 17.136 C 25.674 17.406,23.356 18.038,22.042 18.662 C 20.809 19.247,18.752 20.046,17.470 20.435 C 12.350 21.994,-0.060 32.319,0.012 34.961 C 0.019 35.202,0.733 34.590,1.600 33.600 C 2.467 32.610,3.181 32.036,3.188 32.324 C 3.195 32.612,3.399 32.724,3.643 32.574 C 3.958 32.379,3.944 32.212,3.593 31.995 C 2.979 31.616,6.294 27.874,7.003 28.146 C 7.261 28.245,7.726 28.146,8.036 27.925 C 8.464 27.621,8.407 27.585,7.800 27.775 C 7.233 27.952,7.407 27.635,8.400 26.685 C 10.367 24.802,11.883 23.881,12.444 24.227 C 12.733 24.406,12.819 24.354,12.660 24.097 C 12.299 23.513,15.767 21.447,18.077 20.869 C 20.458 20.274,20.417 20.269,20.150 21.100 C 19.966 21.671,20.001 21.693,20.336 21.219 C 20.562 20.900,20.673 20.518,20.582 20.370 C 20.230 19.801,25.355 17.935,28.694 17.417 C 30.693 17.107,33.114 16.421,34.326 15.823 C 35.684 15.152,37.856 14.576,40.341 14.227 C 42.533 13.920,45.350 13.210,46.796 12.602 C 48.851 11.737,50.054 11.510,52.840 11.461 C 54.753 11.427,56.244 11.323,56.154 11.228 C 55.497 10.541,63.103 8.396,67.455 8.040 C 71.010 7.750,72.754 7.406,74.410 6.671 C 76.955 5.541,81.154 4.802,85.077 4.795 C 87.061 4.791,88.722 4.466,91.200 3.597 C 95.018 2.258,102.225 1.385,107.000 1.685 C 108.540 1.781,109.440 1.779,109.000 1.680 C 108.440 1.554,108.861 1.287,110.400 0.791 C 111.862 0.320,112.264 0.072,111.600 0.053 C 111.050 0.037,110.248 0.229,109.817 0.479 M291.146 0.616 C 291.886 0.937,292.752 1.200,293.070 1.200 C 293.387 1.200,293.563 1.335,293.461 1.500 C 293.358 1.665,294.431 1.739,295.845 1.666 C 300.518 1.421,307.501 2.299,311.200 3.597 C 313.595 4.437,315.368 4.793,317.200 4.803 C 321.142 4.823,324.956 5.487,327.659 6.625 C 329.472 7.388,331.281 7.746,334.747 8.028 C 339.623 8.424,340.866 8.708,343.417 10.009 C 344.271 10.444,345.302 10.800,345.708 10.800 C 346.115 10.800,346.366 10.935,346.266 11.100 C 346.167 11.265,347.551 11.425,349.343 11.455 C 351.834 11.496,353.258 11.764,355.400 12.592 C 356.940 13.188,359.938 13.925,362.061 14.231 C 365.733 14.759,371.151 16.716,370.565 17.302 C 370.431 17.436,370.658 17.458,371.071 17.350 C 372.501 16.976,376.914 17.978,379.299 19.220 C 380.618 19.906,382.502 20.710,383.487 21.006 C 385.547 21.626,388.488 23.534,388.172 24.045 C 388.055 24.235,388.225 24.289,388.550 24.164 C 388.958 24.007,389.106 24.164,389.028 24.668 C 388.966 25.071,388.992 25.175,389.087 24.900 C 389.439 23.875,390.648 24.664,394.700 28.563 C 396.928 30.707,398.244 32.561,396.536 31.149 C 395.927 30.646,395.919 30.676,396.434 31.504 C 396.744 32.001,397.060 32.219,397.138 31.987 C 397.232 31.704,397.461 31.719,397.839 32.032 C 398.534 32.609,398.583 33.353,397.900 32.959 C 397.610 32.792,397.540 32.824,397.733 33.036 C 397.917 33.236,398.187 33.403,398.333 33.406 C 398.835 33.418,399.600 34.047,399.600 34.447 C 399.600 34.667,399.422 34.737,399.205 34.603 C 398.973 34.460,398.914 34.630,399.060 35.013 C 399.328 35.709,399.981 35.107,399.994 34.152 C 400.012 32.798,393.201 25.728,390.262 24.051 C 389.348 23.530,387.880 22.592,387.000 21.967 C 386.120 21.343,384.624 20.662,383.676 20.453 C 382.727 20.245,381.227 19.595,380.342 19.009 C 378.844 18.018,374.583 16.823,372.489 16.807 C 371.987 16.803,370.496 16.254,369.176 15.588 C 367.395 14.689,365.687 14.233,362.571 13.823 C 360.260 13.520,357.954 13.000,357.448 12.668 C 356.097 11.783,353.682 11.218,349.662 10.847 C 347.384 10.637,345.444 10.202,344.288 9.643 C 341.528 8.307,340.196 8.012,335.141 7.619 C 331.866 7.365,330.023 7.024,328.938 6.471 C 326.497 5.225,324.437 4.812,318.861 4.448 C 314.914 4.191,313.280 3.914,312.114 3.306 C 309.778 2.089,306.792 1.590,300.407 1.351 C 297.123 1.228,293.831 0.887,292.829 0.567 C 290.529 -0.169,289.413 -0.137,291.146 0.616 M393.348 28.523 C 393.396 28.851,393.674 29.407,393.967 29.760 C 394.376 30.253,394.383 30.400,394.000 30.400 C 393.609 30.400,393.613 30.534,394.016 31.019 C 394.421 31.508,394.596 31.530,394.846 31.125 C 395.041 30.809,394.825 30.252,394.282 29.674 C 393.797 29.158,393.460 28.645,393.533 28.534 C 393.607 28.424,393.575 28.242,393.463 28.130 C 393.352 28.018,393.299 28.195,393.348 28.523 M398.400 75.648 C 398.400 75.868,398.232 75.944,398.028 75.817 C 397.823 75.691,397.552 75.754,397.426 75.958 C 397.162 76.385,397.961 76.327,398.700 75.865 C 399.499 75.366,399.277 76.206,398.400 77.000 C 397.960 77.398,397.600 77.584,397.600 77.413 C 397.600 77.242,397.358 77.303,397.063 77.548 C 396.768 77.793,396.379 77.860,396.199 77.697 C 396.019 77.533,396.003 77.628,396.164 77.907 C 396.324 78.185,396.623 78.309,396.828 78.183 C 397.032 78.056,397.200 78.133,397.200 78.353 C 397.200 78.753,396.435 79.382,395.934 79.394 C 395.186 79.411,392.414 82.213,392.590 82.774 C 392.715 83.170,392.312 83.709,391.494 84.240 C 387.011 87.152,384.180 88.800,383.660 88.800 C 382.673 88.800,376.579 91.988,375.139 93.257 L 373.800 94.437 375.560 93.219 C 376.528 92.548,377.618 92.000,377.982 92.000 C 378.346 92.000,379.480 91.469,380.504 90.820 C 381.527 90.171,383.137 89.433,384.082 89.179 C 385.027 88.925,386.610 88.129,387.600 87.409 C 388.590 86.689,390.120 85.736,391.000 85.291 C 392.538 84.514,395.972 81.124,398.700 77.690 C 400.212 75.787,400.295 75.392,399.200 75.310 C 398.760 75.277,398.400 75.429,398.400 75.648 M0.000 76.774 C 0.000 77.048,0.429 77.751,0.954 78.336 C 1.479 78.921,2.956 80.570,4.236 82.000 C 7.122 85.223,9.880 87.358,13.000 88.785 C 14.320 89.388,16.086 90.349,16.925 90.920 C 17.764 91.491,19.294 92.072,20.325 92.212 C 23.311 92.615,24.711 93.175,25.608 94.326 C 26.307 95.224,26.371 95.249,25.997 94.479 C 25.387 93.223,23.511 92.151,21.422 91.865 C 18.285 91.435,8.214 85.848,9.263 85.120 C 9.644 84.856,9.559 84.815,8.973 84.978 C 7.980 85.254,1.771 79.173,2.120 78.265 C 2.233 77.969,2.165 77.474,1.969 77.164 C 1.663 76.681,1.611 76.681,1.606 77.162 C 1.601 77.592,1.412 77.554,0.800 77.000 C 0.283 76.532,0.000 76.452,0.000 76.774 M395.993 79.900 C 395.989 80.065,395.224 80.815,394.293 81.567 L 392.600 82.934 394.181 81.267 C 395.823 79.536,396.005 79.399,395.993 79.900 M391.024 81.813 C 390.596 82.136,390.461 82.400,390.724 82.400 C 391.501 82.400,391.778 82.229,391.856 81.700 C 391.945 81.094,391.979 81.090,391.024 81.813 M372.800 97.078 C 372.800 97.303,372.328 98.184,371.752 99.033 C 371.175 99.883,371.007 100.326,371.378 100.018 C 372.219 99.320,373.338 97.205,373.029 96.896 C 372.903 96.770,372.800 96.852,372.800 97.078 M28.434 99.847 C 28.965 100.533,29.480 101.023,29.579 100.935 C 29.677 100.847,29.243 100.286,28.613 99.688 L 27.469 98.600 28.434 99.847 M362.023 116.650 C 361.553 117.448,361.233 118.166,361.313 118.246 C 361.392 118.326,361.861 117.673,362.354 116.796 C 363.475 114.802,363.188 114.677,362.023 116.650 M41.115 122.958 C 41.712 123.925,42.271 124.648,42.359 124.566 C 42.535 124.399,40.493 121.200,40.210 121.200 C 40.111 121.200,40.519 121.991,41.115 122.958 M42.812 126.294 C 42.805 126.565,43.295 127.294,43.900 127.913 C 44.505 128.532,44.710 128.670,44.355 128.219 C 44.000 127.769,43.510 127.040,43.267 126.600 C 43.023 126.160,42.819 126.022,42.812 126.294 M355.900 127.779 C 355.295 128.537,354.800 129.282,354.800 129.434 C 354.800 129.586,355.340 129.031,356.000 128.200 C 357.111 126.802,357.357 126.400,357.100 126.400 C 357.045 126.400,356.505 127.020,355.900 127.779 M275.200 127.480 C 259.215 130.210,250.158 133.139,241.600 138.349 C 218.451 152.440,205.322 173.739,202.363 202.000 C 201.689 208.438,204.078 225.159,206.507 231.013 C 207.052 232.326,207.724 234.101,207.999 234.958 C 214.722 255.860,239.458 278.028,262.518 283.815 C 263.117 283.966,263.708 284.251,263.831 284.450 C 263.954 284.649,264.685 285.076,265.456 285.398 C 266.348 285.770,266.752 286.154,266.567 286.453 C 266.392 286.737,266.449 286.817,266.711 286.655 C 266.949 286.508,267.258 286.570,267.396 286.793 C 267.534 287.017,267.427 287.200,267.157 287.200 C 266.887 287.200,266.782 287.316,266.924 287.457 C 267.065 287.598,267.455 287.486,267.790 287.208 C 268.555 286.573,268.558 286.805,267.802 288.254 C 267.474 288.884,267.206 289.670,267.207 290.000 C 267.210 290.760,268.959 287.810,272.898 280.400 C 273.658 278.970,274.757 277.100,275.340 276.244 C 275.923 275.388,276.400 274.479,276.400 274.222 C 276.400 273.966,276.963 272.869,277.651 271.784 C 278.339 270.699,279.155 269.094,279.465 268.217 C 279.774 267.340,280.369 266.258,280.787 265.811 C 281.205 265.365,282.082 263.806,282.736 262.347 C 283.389 260.888,284.134 259.564,284.391 259.405 C 284.648 259.247,285.475 257.831,286.230 256.258 C 286.985 254.686,288.222 252.320,288.979 251.000 C 289.736 249.680,290.928 247.520,291.628 246.200 C 292.329 244.880,293.229 243.335,293.630 242.767 C 294.031 242.199,294.729 240.796,295.181 239.649 C 295.633 238.502,296.354 237.187,296.783 236.727 C 297.212 236.266,297.828 235.110,298.153 234.156 C 298.478 233.203,299.277 231.743,299.928 230.912 C 300.580 230.080,301.323 228.736,301.579 227.925 C 301.836 227.114,302.402 225.997,302.837 225.444 C 303.272 224.891,303.983 223.636,304.417 222.655 C 304.851 221.675,305.834 219.938,306.603 218.796 C 307.371 217.654,308.000 216.530,308.000 216.298 C 308.000 216.065,308.415 215.319,308.921 214.638 C 309.428 213.957,310.971 211.150,312.350 208.400 C 313.729 205.650,315.295 202.788,315.830 202.040 C 316.364 201.291,316.983 200.007,317.204 199.186 C 317.425 198.365,317.904 197.447,318.269 197.147 C 318.634 196.846,319.545 195.340,320.294 193.800 C 321.544 191.229,322.953 188.624,325.610 183.969 C 326.165 182.996,326.928 181.660,327.305 181.000 C 327.681 180.340,328.470 178.822,329.057 177.627 C 329.645 176.432,330.637 174.696,331.263 173.769 C 331.888 172.842,332.400 171.913,332.400 171.703 C 332.400 171.008,333.582 168.940,334.406 168.194 C 334.853 167.790,335.493 166.516,335.828 165.363 C 336.163 164.210,336.727 163.027,337.080 162.734 C 337.434 162.440,338.238 161.053,338.866 159.652 C 339.495 158.251,340.457 156.572,341.005 155.921 C 341.552 155.271,342.001 154.527,342.002 154.269 C 342.005 153.754,342.644 152.450,343.799 150.600 C 344.403 149.633,344.262 149.711,343.077 151.000 C 342.247 151.902,341.721 152.264,341.872 151.831 C 342.078 151.237,341.993 151.117,341.503 151.305 C 341.134 151.447,340.773 151.307,340.646 150.975 C 340.524 150.659,340.194 150.397,339.913 150.393 C 339.631 150.389,338.998 149.962,338.508 149.445 C 338.017 148.927,337.100 148.400,336.469 148.274 C 335.839 148.148,334.261 147.161,332.962 146.081 C 327.355 141.420,321.816 137.896,316.716 135.743 C 305.555 131.034,302.399 130.131,288.800 127.765 C 285.995 127.276,277.440 127.097,275.200 127.480 M354.000 131.478 C 354.000 131.703,353.528 132.584,352.952 133.433 C 352.375 134.283,352.207 134.726,352.578 134.418 C 353.419 133.720,354.538 131.605,354.229 131.296 C 354.103 131.170,354.000 131.252,354.000 131.478 M349.915 139.042 C 349.319 140.009,348.911 140.800,349.010 140.800 C 349.293 140.800,351.335 137.601,351.159 137.434 C 351.071 137.352,350.512 138.075,349.915 139.042 M347.872 142.619 C 346.932 144.589,347.064 144.924,348.047 143.062 C 348.493 142.216,348.787 141.454,348.701 141.367 C 348.614 141.281,348.241 141.844,347.872 142.619 M56.025 150.300 C 56.523 151.125,57.431 152.819,58.044 154.064 C 58.657 155.309,59.315 156.424,59.507 156.542 C 59.901 156.786,58.315 153.555,56.639 150.700 C 56.026 149.655,55.433 148.800,55.322 148.800 C 55.212 148.800,55.528 149.475,56.025 150.300 M61.600 160.664 C 61.600 160.882,62.095 161.497,62.700 162.030 L 63.800 163.000 62.800 161.800 C 62.250 161.140,61.755 160.525,61.700 160.433 C 61.645 160.342,61.600 160.445,61.600 160.664 M64.418 165.726 C 64.408 165.906,64.607 166.446,64.859 166.926 C 65.499 168.142,67.200 170.143,67.200 169.680 C 67.200 169.470,66.918 169.064,66.573 168.777 C 66.228 168.491,65.606 167.614,65.191 166.829 C 64.775 166.043,64.427 165.547,64.418 165.726 M67.632 171.500 C 68.072 172.673,69.979 175.600,70.303 175.600 C 70.410 175.600,70.200 175.195,69.836 174.700 C 69.471 174.205,68.811 173.035,68.368 172.100 C 67.464 170.193,67.000 169.814,67.632 171.500 M74.764 184.733 C 74.980 185.136,75.474 185.721,75.863 186.033 C 76.364 186.435,76.304 186.222,75.657 185.300 C 74.669 183.891,74.131 183.549,74.764 184.733 M83.600 201.064 C 83.600 201.282,84.095 201.897,84.700 202.430 L 85.800 203.400 84.800 202.200 C 84.250 201.540,83.755 200.925,83.700 200.833 C 83.645 200.742,83.600 200.845,83.600 201.064 M87.200 207.383 C 87.200 207.543,87.560 208.131,88.000 208.691 C 88.440 209.250,88.800 209.577,88.800 209.417 C 88.800 209.257,88.440 208.669,88.000 208.109 C 87.560 207.550,87.200 207.223,87.200 207.383 M95.044 221.200 C 95.911 222.988,96.178 223.267,95.807 222.000 C 95.646 221.450,95.256 220.730,94.940 220.400 C 94.523 219.965,94.552 220.184,95.044 221.200 M99.200 229.464 C 99.200 229.682,99.695 230.297,100.300 230.830 L 101.400 231.800 100.400 230.600 C 99.850 229.940,99.355 229.325,99.300 229.233 C 99.245 229.142,99.200 229.245,99.200 229.464 M105.600 241.111 C 105.600 241.355,106.067 242.060,106.637 242.678 L 107.673 243.800 106.766 242.400 C 105.585 240.577,105.600 240.594,105.600 241.111 M131.200 287.600 C 131.670 288.260,132.144 288.800,132.254 288.800 C 132.364 288.800,132.070 288.260,131.600 287.600 C 131.130 286.940,130.656 286.400,130.546 286.400 C 130.436 286.400,130.730 286.940,131.200 287.600 M265.286 293.673 C 264.579 294.593,264.001 295.538,264.001 295.773 C 264.002 296.008,264.358 295.660,264.792 295.000 C 265.226 294.340,265.878 293.395,266.240 292.900 C 267.408 291.301,266.613 291.946,265.286 293.673 M256.817 309.558 C 256.548 310.209,255.983 311.053,255.563 311.433 C 255.144 311.813,254.800 312.290,254.800 312.493 C 254.800 312.957,256.517 310.912,257.173 309.666 C 257.443 309.152,257.584 308.651,257.486 308.553 C 257.388 308.455,257.087 308.907,256.817 309.558 M142.812 309.007 C 142.798 309.474,144.721 312.400,145.042 312.400 C 145.159 312.400,144.910 311.905,144.488 311.300 C 144.067 310.695,143.520 309.840,143.273 309.400 C 143.026 308.960,142.819 308.783,142.812 309.007 M253.400 315.600 C 253.059 316.260,252.869 316.800,252.979 316.800 C 253.089 316.800,253.459 316.260,253.800 315.600 C 254.141 314.940,254.331 314.400,254.221 314.400 C 254.111 314.400,253.741 314.940,253.400 315.600 M240.075 339.984 C 239.594 340.635,239.200 341.300,239.200 341.462 C 239.200 341.623,239.650 341.145,240.200 340.400 C 240.750 339.655,241.200 338.990,241.200 338.922 C 241.200 338.595,240.875 338.902,240.075 339.984 M160.834 341.251 C 160.815 341.389,161.068 342.143,161.395 342.926 C 162.083 344.572,164.000 347.504,164.000 346.910 C 164.000 346.689,163.665 346.079,163.255 345.554 C 162.845 345.029,162.140 343.790,161.689 342.800 C 161.237 341.810,160.852 341.113,160.834 341.251 M237.289 345.117 L 236.379 346.600 237.389 345.478 C 237.945 344.860,238.400 344.185,238.400 343.978 C 238.400 343.390,238.265 343.528,237.289 345.117 M224.401 368.598 C 223.886 369.148,223.539 369.664,223.632 369.746 C 223.724 369.828,224.219 369.378,224.730 368.747 C 225.876 367.335,225.674 367.244,224.401 368.598 M215.053 385.591 C 214.474 386.467,214.000 387.317,214.000 387.480 C 214.000 387.644,214.242 387.423,214.539 386.989 C 215.841 385.081,216.478 384.000,216.299 384.000 C 216.193 384.000,215.632 384.716,215.053 385.591 M209.100 396.579 C 208.495 397.337,208.000 398.082,208.000 398.234 C 208.000 398.386,208.540 397.831,209.200 397.000 C 210.311 395.602,210.557 395.200,210.300 395.200 C 210.245 395.200,209.705 395.820,209.100 396.579 M190.834 396.647 C 191.365 397.333,191.880 397.823,191.979 397.735 C 192.077 397.647,191.643 397.086,191.013 396.488 L 189.869 395.400 190.834 396.647 " stroke="none" fill="#a3a3a3" fill-rule="evenodd"></path><path id="path1" d="M100.800 2.000 C 100.046 2.487,101.678 2.487,103.200 2.000 C 104.116 1.707,104.083 1.677,102.800 1.646 C 102.030 1.627,101.130 1.787,100.800 2.000 M299.400 2.000 C 300.576 2.506,302.382 2.506,301.600 2.000 C 301.270 1.787,300.460 1.622,299.800 1.634 C 298.770 1.653,298.713 1.705,299.400 2.000 M96.400 2.400 C 96.400 2.919,97.479 2.919,97.800 2.400 C 97.936 2.180,97.677 2.000,97.224 2.000 C 96.771 2.000,96.400 2.180,96.400 2.400 M304.800 2.400 C 304.800 2.620,305.070 2.800,305.400 2.800 C 305.730 2.800,306.000 2.620,306.000 2.400 C 306.000 2.180,305.730 2.000,305.400 2.000 C 305.070 2.000,304.800 2.180,304.800 2.400 M81.200 5.200 C 81.200 5.675,81.895 5.675,83.000 5.200 C 83.670 4.912,83.589 4.852,82.500 4.828 C 81.785 4.813,81.200 4.980,81.200 5.200 M319.200 5.200 C 319.990 5.711,321.316 5.711,321.000 5.200 C 320.864 4.980,320.268 4.803,319.676 4.806 C 318.834 4.811,318.731 4.897,319.200 5.200 M70.000 8.000 L 69.000 8.320 70.076 8.360 C 70.668 8.382,71.264 8.220,71.400 8.000 C 71.681 7.545,71.420 7.545,70.000 8.000 M65.000 8.400 C 64.864 8.620,65.023 8.800,65.353 8.800 C 65.683 8.800,66.064 8.620,66.200 8.400 C 66.336 8.180,66.177 8.000,65.847 8.000 C 65.517 8.000,65.136 8.180,65.000 8.400 M336.000 8.400 C 336.776 8.901,337.200 8.901,337.200 8.400 C 337.200 8.180,336.795 8.003,336.300 8.006 C 335.572 8.011,335.515 8.086,336.000 8.400 M51.400 11.600 C 51.264 11.820,51.423 12.000,51.753 12.000 C 52.083 12.000,52.464 11.820,52.600 11.600 C 52.736 11.380,52.577 11.200,52.247 11.200 C 51.917 11.200,51.536 11.380,51.400 11.600 M349.800 11.600 C 349.936 11.820,350.317 12.000,350.647 12.000 C 350.977 12.000,351.136 11.820,351.000 11.600 C 350.864 11.380,350.483 11.200,350.153 11.200 C 349.823 11.200,349.664 11.380,349.800 11.600 M40.200 14.400 C 39.885 14.909,40.812 14.909,41.600 14.400 C 42.088 14.085,42.036 14.011,41.324 14.006 C 40.842 14.003,40.336 14.180,40.200 14.400 M360.600 14.400 C 360.736 14.620,361.242 14.797,361.724 14.794 C 362.436 14.789,362.488 14.715,362.000 14.400 C 361.212 13.891,360.285 13.891,360.600 14.400 M28.800 17.600 C 28.267 17.945,28.267 17.988,28.800 17.988 C 29.130 17.988,29.670 17.813,30.000 17.600 C 30.533 17.255,30.533 17.212,30.000 17.212 C 29.670 17.212,29.130 17.387,28.800 17.600 M390.905 25.600 C 391.231 26.150,391.656 26.603,391.849 26.606 C 392.042 26.609,392.470 26.779,392.800 26.983 C 393.314 27.301,393.323 27.259,392.862 26.690 C 392.566 26.324,392.173 26.065,391.990 26.113 C 391.806 26.161,391.354 25.840,390.984 25.400 C 390.341 24.634,390.338 24.643,390.905 25.600 M179.200 62.639 C 178.210 62.718,174.250 62.975,170.400 63.210 C 166.550 63.444,161.150 63.908,158.400 64.241 C 155.650 64.573,149.804 65.190,145.408 65.612 C 135.966 66.519,123.051 68.371,114.400 70.058 C 110.990 70.723,106.580 71.529,104.600 71.848 C 97.833 72.939,78.511 77.231,68.800 79.800 C 66.050 80.528,62.810 81.343,61.600 81.613 C 60.390 81.882,58.320 82.545,57.000 83.085 C 48.851 86.422,44.344 87.667,39.019 88.052 C 29.079 88.769,26.008 89.594,27.042 91.268 C 27.141 91.428,26.875 91.491,26.451 91.410 C 25.700 91.265,25.498 92.031,26.122 92.655 C 26.617 93.151,26.416 93.581,25.800 93.345 C 25.470 93.218,25.200 92.883,25.200 92.600 C 25.200 92.317,24.930 91.982,24.600 91.855 C 24.270 91.729,24.000 91.786,24.000 91.982 C 24.000 92.550,26.335 94.729,26.646 94.451 C 26.801 94.313,26.806 94.413,26.657 94.674 C 26.293 95.309,27.502 98.356,28.612 99.600 C 29.102 100.150,29.707 101.240,29.957 102.021 C 30.437 103.528,32.969 107.697,33.240 107.427 C 33.328 107.339,33.426 107.710,33.459 108.252 C 33.491 108.793,34.024 109.993,34.642 110.918 C 35.843 112.714,37.827 116.309,39.167 119.118 C 39.618 120.063,40.418 121.413,40.945 122.118 C 41.472 122.823,42.294 124.298,42.771 125.395 C 43.249 126.492,43.977 127.752,44.391 128.195 C 44.804 128.638,45.527 130.032,45.997 131.292 C 46.467 132.553,47.037 133.699,47.264 133.839 C 47.490 133.979,48.211 135.287,48.866 136.746 C 49.520 138.205,50.328 139.699,50.660 140.067 C 50.993 140.434,51.794 141.785,52.440 143.068 C 53.086 144.350,53.925 145.940,54.304 146.600 C 57.197 151.641,57.724 152.401,58.329 152.406 C 58.851 152.411,58.881 152.487,58.464 152.752 C 57.497 153.365,59.402 156.534,60.412 155.994 C 60.950 155.706,61.200 155.703,61.200 155.986 C 61.200 156.214,60.915 156.400,60.567 156.400 C 60.218 156.400,60.016 156.625,60.117 156.900 C 60.217 157.175,60.496 157.357,60.736 157.305 C 60.975 157.252,61.095 157.432,61.001 157.705 C 60.714 158.542,62.541 161.768,63.600 162.292 C 64.150 162.565,64.376 162.791,64.102 162.794 C 63.739 162.798,63.813 163.352,64.374 164.828 C 65.482 167.745,66.268 168.817,67.101 168.549 C 67.533 168.411,67.628 168.454,67.350 168.662 C 66.696 169.154,67.420 170.801,68.287 170.794 C 68.894 170.789,68.911 170.730,68.400 170.400 C 68.039 170.167,67.990 170.010,68.276 170.006 C 69.069 169.996,69.260 170.727,68.567 171.115 C 67.973 171.447,67.981 171.589,68.658 172.755 C 70.310 175.596,72.427 179.521,73.400 181.548 C 73.968 182.729,74.853 184.259,75.368 184.948 C 75.882 185.637,76.679 187.064,77.138 188.119 C 77.993 190.086,79.396 192.136,79.740 191.921 C 79.847 191.854,80.083 191.964,80.267 192.164 C 80.463 192.379,80.377 192.399,80.057 192.214 C 79.008 191.607,80.708 195.632,82.036 196.902 C 82.440 197.288,82.957 198.298,83.186 199.148 C 83.615 200.742,85.795 203.857,86.098 203.309 C 86.192 203.139,86.212 203.229,86.144 203.509 C 85.998 204.101,87.337 207.025,89.575 211.000 C 90.442 212.540,91.763 214.970,92.510 216.400 C 93.420 218.142,94.078 218.964,94.504 218.889 C 94.854 218.829,95.253 218.961,95.391 219.185 C 95.542 219.430,95.375 219.488,94.966 219.332 C 93.942 218.939,94.472 220.104,95.567 220.655 C 96.133 220.939,96.281 221.173,95.963 221.279 C 95.080 221.573,97.086 225.199,98.136 225.206 C 98.809 225.211,98.873 225.292,98.426 225.576 C 98.012 225.838,97.968 226.087,98.271 226.470 C 98.501 226.761,98.804 227.481,98.945 228.069 C 99.085 228.657,99.637 229.658,100.171 230.293 C 100.705 230.928,101.600 232.481,102.158 233.744 C 103.422 236.602,104.431 237.912,105.204 237.702 C 105.686 237.570,105.697 237.612,105.259 237.919 C 104.654 238.343,104.991 239.166,108.159 245.000 C 109.627 247.704,110.044 248.189,110.848 248.126 C 111.435 248.080,111.531 248.130,111.100 248.255 C 110.212 248.513,110.193 248.403,111.551 250.891 C 113.778 254.973,114.205 255.595,114.800 255.629 C 115.211 255.652,115.242 255.727,114.900 255.865 C 114.072 256.199,114.324 257.040,115.852 259.041 C 116.651 260.087,117.468 261.535,117.667 262.259 C 117.867 262.983,118.470 264.097,119.007 264.736 C 119.545 265.374,120.356 266.764,120.811 267.825 C 122.125 270.890,123.719 273.165,124.600 273.232 C 125.279 273.284,125.294 273.321,124.700 273.476 C 123.798 273.711,123.819 273.882,124.987 275.800 C 125.522 276.680,126.509 278.429,127.180 279.688 C 128.116 281.444,128.562 281.923,129.100 281.750 C 129.642 281.575,129.675 281.613,129.249 281.918 C 128.466 282.476,129.124 283.311,130.145 283.055 C 130.932 282.857,130.944 282.882,130.297 283.366 C 129.682 283.827,129.659 284.038,130.111 285.046 C 131.129 287.314,133.010 289.975,133.600 289.981 C 134.133 289.987,134.133 289.945,133.600 289.600 C 133.239 289.367,133.190 289.210,133.476 289.206 C 134.257 289.196,134.465 289.924,133.790 290.302 C 132.999 290.744,133.464 292.120,134.942 293.706 C 135.508 294.314,136.159 295.504,136.387 296.352 C 136.615 297.199,137.341 298.571,138.000 299.400 C 138.659 300.229,139.383 301.595,139.610 302.436 C 139.836 303.276,140.453 304.477,140.982 305.105 C 141.510 305.733,142.406 307.227,142.973 308.424 C 143.540 309.621,144.820 312.040,145.818 313.800 C 146.816 315.560,148.012 317.810,148.476 318.800 C 148.940 319.790,149.730 321.140,150.231 321.800 C 150.733 322.461,151.519 323.879,151.979 324.952 C 152.440 326.025,153.262 327.434,153.808 328.082 C 154.354 328.731,154.800 329.482,154.800 329.752 C 154.800 331.068,156.902 334.400,157.736 334.406 C 158.366 334.411,158.455 334.504,158.063 334.753 C 157.672 335.001,157.635 335.297,157.930 335.846 C 158.151 336.261,158.623 337.267,158.977 338.083 C 159.331 338.899,159.819 339.688,160.060 339.837 C 160.302 339.987,161.029 341.209,161.677 342.554 C 164.998 349.449,166.188 351.402,167.000 351.283 C 167.559 351.202,167.646 351.271,167.289 351.514 C 166.703 351.912,167.522 354.064,169.095 356.259 C 169.587 356.946,170.364 358.384,170.821 359.454 C 171.279 360.524,171.986 361.760,172.392 362.200 C 172.798 362.640,173.435 363.939,173.807 365.087 C 174.179 366.235,174.934 367.625,175.485 368.176 C 176.036 368.727,176.723 369.857,177.013 370.689 C 177.388 371.765,177.749 372.175,178.269 372.112 C 178.671 372.063,178.775 372.123,178.500 372.245 C 177.834 372.540,177.866 373.391,178.565 373.971 C 178.876 374.229,179.781 375.736,180.577 377.320 C 183.833 383.805,184.500 385.036,185.170 385.800 C 185.555 386.240,186.118 387.230,186.421 388.000 C 186.724 388.770,187.447 390.120,188.027 391.000 C 188.608 391.880,189.291 393.218,189.546 393.974 C 190.153 395.771,191.112 396.798,191.938 396.535 C 192.340 396.407,192.434 396.457,192.176 396.662 C 191.879 396.899,191.900 397.480,192.245 398.600 C 192.517 399.480,192.752 399.874,192.769 399.476 C 192.786 399.078,192.983 398.866,193.207 399.004 C 193.430 399.142,193.502 399.435,193.366 399.655 C 193.204 399.917,195.610 400.023,200.342 399.964 L 207.564 399.873 207.858 398.636 C 208.020 397.956,208.103 397.220,208.043 397.000 C 207.983 396.780,208.067 396.733,208.230 396.897 C 208.571 397.238,209.600 396.496,209.600 395.908 C 209.600 395.692,209.321 395.622,208.979 395.753 C 208.601 395.898,208.461 395.825,208.620 395.568 C 208.763 395.336,209.114 395.235,209.400 395.345 C 209.739 395.475,210.659 394.065,212.059 391.272 C 213.237 388.922,214.875 385.937,215.700 384.638 C 216.525 383.339,217.200 382.096,217.200 381.876 C 217.200 381.656,217.612 380.919,218.116 380.238 C 218.619 379.557,219.376 378.190,219.796 377.200 C 220.217 376.210,221.032 374.680,221.608 373.800 C 222.185 372.920,222.901 371.570,223.201 370.800 C 223.500 370.030,224.243 368.820,224.851 368.111 C 226.213 366.523,227.011 363.981,226.290 363.524 C 225.920 363.289,225.936 363.211,226.353 363.206 C 227.552 363.193,230.347 358.485,229.739 357.502 C 229.590 357.261,229.665 357.193,229.911 357.345 C 230.566 357.750,230.986 356.770,230.351 356.318 C 229.925 356.013,229.959 355.976,230.501 356.150 C 231.048 356.326,231.531 355.759,232.701 353.568 C 233.525 352.024,234.864 349.555,235.676 348.080 C 236.488 346.606,237.648 344.410,238.254 343.200 C 238.859 341.990,239.755 340.460,240.244 339.800 C 240.733 339.140,241.449 337.790,241.836 336.800 C 242.222 335.810,242.926 334.529,243.399 333.953 C 243.872 333.377,244.471 332.342,244.729 331.653 C 244.988 330.964,245.402 329.860,245.649 329.200 C 245.895 328.540,246.265 328.000,246.471 328.000 C 246.676 328.000,247.312 326.965,247.883 325.700 C 248.455 324.435,249.280 322.886,249.718 322.259 C 250.382 321.306,250.422 321.052,249.957 320.721 C 249.519 320.410,249.549 320.372,250.092 320.547 C 250.614 320.714,251.012 320.305,251.710 318.884 C 252.220 317.848,253.151 316.038,253.780 314.862 C 254.722 313.101,254.824 312.661,254.362 312.368 C 253.898 312.074,253.911 312.011,254.438 312.006 C 255.322 311.998,256.546 310.560,256.177 309.963 C 255.997 309.672,256.043 309.580,256.291 309.733 C 256.526 309.878,257.074 309.134,257.554 308.017 C 258.021 306.933,258.604 305.921,258.851 305.768 C 259.098 305.616,259.839 304.301,260.499 302.847 C 261.158 301.392,262.025 299.786,262.424 299.278 C 262.824 298.770,263.439 297.486,263.792 296.424 C 264.145 295.363,264.786 294.175,265.217 293.785 C 266.153 292.937,266.248 292.219,265.379 292.553 C 265.014 292.693,264.862 292.623,265.009 292.385 C 265.147 292.161,265.537 292.029,265.876 292.089 C 266.317 292.169,266.750 291.411,267.401 289.418 C 267.938 287.773,268.083 286.946,267.755 287.394 C 267.450 287.811,267.200 287.993,267.200 287.796 C 267.200 287.600,266.984 287.656,266.720 287.920 C 266.145 288.495,264.400 288.562,264.400 288.009 C 264.400 287.219,262.376 286.332,258.933 285.615 C 252.523 284.278,245.128 281.041,240.238 277.431 C 238.677 276.278,236.195 274.492,234.721 273.462 C 193.402 244.580,187.656 185.954,222.587 149.645 C 245.314 126.022,280.911 118.188,310.849 130.220 C 313.344 131.222,316.919 132.582,318.793 133.241 C 323.766 134.991,332.322 140.870,338.801 146.990 C 339.351 147.510,340.298 148.060,340.905 148.212 C 341.511 148.364,342.124 148.676,342.266 148.906 C 342.412 149.143,342.331 149.205,342.079 149.049 C 341.824 148.891,341.878 149.244,342.203 149.872 C 342.644 150.721,342.663 151.039,342.286 151.279 C 341.924 151.509,341.921 151.589,342.273 151.594 C 342.881 151.602,344.212 149.728,345.226 147.435 C 345.664 146.445,346.242 145.402,346.511 145.118 C 346.897 144.709,348.282 142.128,349.525 139.500 C 349.603 139.335,349.382 139.200,349.033 139.200 C 348.685 139.200,348.400 139.014,348.400 138.786 C 348.400 138.507,348.663 138.513,349.208 138.804 C 349.940 139.196,350.133 138.998,351.243 136.719 C 351.917 135.333,353.023 133.149,353.701 131.865 C 354.719 129.936,354.835 129.468,354.367 129.171 C 353.903 128.877,353.923 128.811,354.480 128.806 C 355.731 128.795,358.768 123.719,358.136 122.696 C 357.993 122.465,358.065 122.393,358.294 122.535 C 359.301 123.157,361.510 118.515,360.544 117.808 C 359.955 117.378,359.982 117.328,360.786 117.362 C 361.519 117.393,361.997 116.826,363.289 114.400 C 364.167 112.750,365.120 111.130,365.408 110.800 C 365.695 110.470,366.401 109.210,366.977 108.000 C 367.553 106.790,368.821 104.360,369.795 102.600 C 373.030 96.755,374.330 93.826,373.847 93.470 C 373.557 93.255,373.611 93.200,374.000 93.313 C 374.726 93.522,376.813 92.135,376.768 91.473 C 376.747 91.154,376.669 91.169,376.530 91.517 C 376.360 91.939,376.206 91.939,375.684 91.517 C 375.272 91.183,375.147 91.167,375.330 91.472 C 375.830 92.307,374.932 92.408,374.200 91.600 C 373.811 91.170,373.347 90.909,373.167 91.020 C 372.988 91.131,372.909 90.871,372.992 90.442 C 373.262 89.037,370.295 88.203,363.600 87.803 C 361.510 87.678,358.810 87.332,357.600 87.034 C 352.068 85.674,347.423 84.278,345.306 83.339 C 343.163 82.389,337.350 80.734,329.200 78.753 C 327.330 78.299,324.450 77.576,322.800 77.147 C 321.150 76.717,318.000 76.006,315.800 75.566 C 313.600 75.126,309.460 74.241,306.600 73.600 C 303.740 72.958,299.780 72.171,297.800 71.850 C 295.820 71.530,291.410 70.722,288.000 70.054 C 284.590 69.387,279.100 68.465,275.800 68.007 C 272.500 67.548,268.180 66.926,266.200 66.625 C 264.220 66.325,260.260 65.875,257.400 65.626 C 254.540 65.377,249.230 64.819,245.600 64.386 C 241.970 63.953,236.750 63.406,234.000 63.171 C 229.317 62.771,183.136 62.322,179.200 62.639 M226.619 64.596 C 230.809 64.924,236.754 65.457,239.829 65.782 C 242.905 66.107,248.926 66.650,253.210 66.989 C 257.495 67.329,262.918 67.956,265.263 68.384 C 267.608 68.812,272.108 69.451,275.263 69.804 C 278.418 70.156,282.800 70.869,285.000 71.387 C 287.200 71.906,291.070 72.627,293.600 72.991 C 296.130 73.355,300.000 74.083,302.200 74.609 C 304.400 75.136,307.460 75.763,309.000 76.003 C 312.146 76.492,323.230 79.070,329.600 80.794 C 331.910 81.418,335.240 82.237,337.000 82.613 C 341.128 83.494,342.694 84.428,343.027 86.205 C 343.311 87.715,343.241 87.858,334.603 103.600 C 332.008 108.330,327.833 115.980,325.326 120.600 C 319.322 131.666,319.214 131.733,311.975 128.829 C 309.821 127.965,306.291 126.772,304.129 126.178 C 301.968 125.584,299.325 124.856,298.255 124.560 C 292.811 123.054,273.292 122.824,266.400 124.185 C 221.694 133.013,192.897 173.496,198.813 219.200 C 201.451 239.579,214.708 260.855,233.302 274.550 C 238.238 278.185,238.605 279.547,235.901 284.200 C 235.134 285.520,232.650 290.020,230.381 294.200 C 228.113 298.380,224.739 304.590,222.885 308.000 C 221.030 311.410,218.294 316.450,216.805 319.200 C 215.315 321.950,212.365 327.339,210.248 331.175 C 208.132 335.012,206.400 338.211,206.400 338.285 C 206.400 338.776,202.564 344.882,201.812 345.589 C 199.030 348.202,199.415 348.763,182.299 317.200 C 180.331 313.570,177.861 309.070,176.812 307.200 C 175.762 305.330,172.965 300.200,170.598 295.800 C 168.230 291.400,164.983 285.460,163.382 282.600 C 161.782 279.740,159.315 275.240,157.902 272.600 C 155.554 268.215,152.608 262.827,142.593 244.600 C 140.659 241.080,137.063 234.510,134.601 230.000 C 132.139 225.490,128.003 217.930,125.409 213.200 C 122.815 208.470,118.985 201.450,116.897 197.600 C 114.810 193.750,112.432 189.430,111.612 188.000 C 110.793 186.570,109.168 183.600,108.000 181.400 C 106.832 179.200,105.207 176.230,104.388 174.800 C 103.568 173.370,101.138 168.960,98.986 165.000 C 96.834 161.040,93.004 154.020,90.475 149.400 C 87.945 144.780,84.760 138.930,83.396 136.400 C 82.031 133.870,79.963 130.090,78.800 128.000 C 76.992 124.754,70.073 112.097,66.117 104.800 C 65.461 103.590,63.186 99.435,61.062 95.567 C 55.578 85.582,55.832 84.639,64.512 82.762 C 66.540 82.323,70.090 81.454,72.400 80.832 C 79.890 78.814,88.512 76.808,92.394 76.180 C 94.481 75.842,97.901 75.134,99.994 74.606 C 102.087 74.079,105.420 73.442,107.400 73.192 C 109.380 72.942,113.340 72.225,116.200 71.599 C 119.060 70.973,123.290 70.252,125.600 69.997 C 127.910 69.742,132.590 69.090,136.000 68.549 C 139.410 68.008,145.440 67.302,149.400 66.980 C 155.251 66.504,165.555 65.600,180.200 64.279 C 185.322 63.817,219.653 64.051,226.619 64.596 M4.000 80.754 C 4.990 81.659,6.385 83.060,7.100 83.867 C 7.815 84.673,8.400 85.206,8.400 85.050 C 8.400 84.581,4.715 80.790,3.412 79.918 C 2.654 79.411,2.874 79.724,4.000 80.754 M150.276 99.237 C 130.486 102.131,117.918 126.264,126.602 144.693 C 136.617 165.945,164.109 170.607,180.021 153.753 C 201.663 130.829,181.902 94.613,150.276 99.237 M162.262 101.792 C 186.496 107.507,194.723 136.324,176.947 153.232 C 158.952 170.349,129.444 159.321,126.281 134.298 C 123.849 115.062,143.448 97.356,162.262 101.792 M43.147 123.076 C 43.489 123.733,43.487 124.023,43.139 124.238 C 42.852 124.415,42.785 124.348,42.962 124.062 C 43.119 123.808,43.046 123.600,42.800 123.600 C 42.554 123.600,42.464 123.420,42.600 123.200 C 42.736 122.980,42.522 122.797,42.124 122.794 C 41.522 122.789,41.499 122.725,41.988 122.416 C 42.312 122.211,42.603 122.079,42.634 122.122 C 42.666 122.165,42.897 122.594,43.147 123.076 M165.900 347.900 C 165.992 348.175,165.861 348.400,165.610 348.400 C 165.358 348.400,165.256 348.234,165.381 348.030 C 165.507 347.827,165.293 347.567,164.905 347.453 C 164.310 347.278,164.320 347.258,164.967 347.323 C 165.389 347.365,165.809 347.625,165.900 347.900 M217.311 379.988 C 217.080 380.270,216.412 379.090,216.412 378.400 C 216.412 378.069,216.648 378.249,216.939 378.800 C 217.229 379.350,217.396 379.885,217.311 379.988 " stroke="none" fill="#000000" fill-rule="evenodd"></path><path id="path2" d="M113.208 0.610 C 113.486 0.945,113.585 1.348,113.427 1.506 C 113.269 1.664,112.965 1.480,112.750 1.097 C 112.536 0.714,112.144 0.403,111.880 0.406 C 111.582 0.410,111.623 0.553,111.988 0.784 C 112.312 0.989,112.451 1.282,112.298 1.435 C 112.145 1.589,111.741 1.483,111.400 1.200 C 111.059 0.917,110.665 0.802,110.524 0.943 C 110.382 1.084,110.513 1.200,110.813 1.200 C 111.267 1.200,111.270 1.285,110.830 1.700 C 110.406 2.100,110.263 2.100,110.117 1.700 C 110.016 1.425,109.633 1.203,109.267 1.206 C 108.731 1.211,108.708 1.281,109.153 1.562 C 109.749 1.940,109.466 2.072,107.000 2.566 L 105.800 2.807 106.800 2.217 L 107.800 1.628 106.350 1.614 C 104.124 1.592,102.231 2.047,102.868 2.450 C 103.265 2.702,103.197 2.805,102.600 2.855 C 101.204 2.972,101.010 3.015,100.537 3.311 C 100.225 3.507,100.143 3.341,100.284 2.801 C 100.513 1.926,98.312 1.571,97.800 2.400 C 97.664 2.620,97.779 2.800,98.056 2.800 C 98.442 2.800,98.450 2.910,98.089 3.271 C 97.729 3.631,97.446 3.585,96.878 3.071 C 96.470 2.702,95.791 2.406,95.369 2.413 C 94.645 2.425,94.641 2.456,95.300 2.957 C 96.153 3.604,96.187 3.867,95.417 3.867 C 95.097 3.867,94.742 3.627,94.630 3.333 C 94.517 3.040,94.104 2.803,93.713 2.806 C 93.118 2.811,93.097 2.874,93.588 3.184 C 93.912 3.389,94.051 3.682,93.898 3.835 C 93.745 3.989,93.368 3.905,93.060 3.650 C 92.128 2.877,91.183 3.503,91.606 4.615 C 91.893 5.371,91.848 5.517,91.383 5.338 C 91.062 5.215,90.800 4.864,90.800 4.557 C 90.800 4.251,90.640 4.000,90.444 4.000 C 90.249 4.000,90.114 4.296,90.144 4.657 C 90.175 5.018,89.946 5.403,89.636 5.512 C 89.247 5.648,89.150 5.507,89.324 5.055 C 89.652 4.198,88.566 4.175,88.088 5.028 C 87.893 5.378,87.087 5.707,86.269 5.772 C 84.586 5.906,84.409 5.731,85.700 5.212 C 86.538 4.876,86.517 4.849,85.400 4.831 C 83.763 4.804,82.362 5.215,82.628 5.645 C 82.823 5.960,82.521 6.070,81.745 5.966 C 81.604 5.947,81.319 6.172,81.110 6.466 C 80.839 6.847,80.787 6.743,80.928 6.100 C 81.091 5.356,80.954 5.200,80.136 5.200 C 79.328 5.200,79.193 5.347,79.400 6.000 C 79.695 6.930,78.896 7.117,78.545 6.200 C 78.418 5.870,78.042 5.600,77.708 5.600 C 77.260 5.600,77.213 5.734,77.528 6.113 C 77.772 6.407,77.811 6.858,77.621 7.166 C 77.366 7.579,77.224 7.505,77.017 6.853 C 76.868 6.384,76.559 6.000,76.330 6.000 C 76.102 6.000,76.018 6.270,76.145 6.600 C 76.271 6.930,76.216 7.200,76.021 7.200 C 75.826 7.200,75.603 7.010,75.526 6.777 C 75.448 6.545,75.063 6.478,74.669 6.629 C 74.276 6.780,74.049 7.150,74.164 7.452 C 74.280 7.753,74.216 8.000,74.021 8.000 C 73.826 8.000,73.576 7.775,73.465 7.500 C 73.328 7.160,73.253 7.193,73.232 7.604 C 73.214 7.936,72.795 8.460,72.300 8.768 C 71.472 9.284,71.445 9.274,71.957 8.655 C 72.263 8.284,72.384 7.850,72.224 7.691 C 72.065 7.532,71.717 7.699,71.450 8.064 C 71.184 8.428,70.400 8.815,69.708 8.924 C 69.015 9.033,68.213 9.244,67.925 9.392 C 67.636 9.540,67.841 9.274,68.380 8.802 L 69.360 7.942 67.780 8.071 C 66.851 8.147,66.200 8.406,66.200 8.700 C 66.200 8.975,66.040 9.185,65.845 9.166 C 65.649 9.147,65.337 9.372,65.151 9.666 C 64.908 10.049,64.811 9.946,64.806 9.300 C 64.802 8.743,64.555 8.400,64.157 8.400 C 63.756 8.400,63.599 8.621,63.740 8.987 C 63.864 9.310,63.792 9.682,63.580 9.813 C 63.368 9.944,63.086 9.769,62.954 9.425 C 62.822 9.081,62.442 8.800,62.108 8.800 C 61.610 8.800,61.593 8.909,62.008 9.410 C 62.286 9.745,62.396 10.137,62.253 10.280 C 62.109 10.424,61.764 10.230,61.485 9.849 C 60.784 8.890,59.625 9.383,59.894 10.526 C 60.098 11.392,60.094 11.393,59.449 10.600 L 58.798 9.800 59.070 10.600 C 59.219 11.040,59.535 11.532,59.771 11.694 C 60.064 11.895,60.049 11.990,59.723 11.994 C 59.460 11.997,58.965 11.600,58.623 11.111 C 58.111 10.380,58.000 10.345,58.000 10.911 C 58.000 11.290,57.809 11.600,57.576 11.600 C 57.343 11.600,57.264 11.420,57.400 11.200 C 57.536 10.980,57.367 10.800,57.024 10.800 C 56.681 10.800,56.400 11.070,56.400 11.400 C 56.400 11.730,56.265 12.014,56.100 12.031 C 55.935 12.047,55.485 12.122,55.100 12.195 C 54.300 12.348,54.147 11.777,54.900 11.448 C 55.175 11.327,54.770 11.267,54.000 11.314 C 53.105 11.369,52.600 11.603,52.600 11.962 C 52.600 12.271,52.285 12.570,51.900 12.626 C 51.515 12.683,51.200 12.475,51.200 12.165 C 51.200 11.854,50.911 11.600,50.557 11.600 C 50.150 11.600,49.999 11.820,50.145 12.200 C 50.285 12.565,50.145 12.800,49.787 12.800 C 49.464 12.800,49.200 12.620,49.200 12.400 C 49.200 12.180,48.894 12.000,48.520 12.000 C 47.991 12.000,47.947 12.107,48.320 12.480 C 49.170 13.330,48.830 13.751,47.931 12.962 C 47.453 12.543,47.190 12.418,47.346 12.685 C 47.503 12.954,47.265 13.535,46.815 13.985 L 46.000 14.800 46.000 13.976 C 46.000 13.523,46.180 13.264,46.400 13.400 C 46.620 13.536,46.800 13.437,46.800 13.181 C 46.800 12.920,46.521 12.821,46.167 12.957 C 45.819 13.091,45.465 13.200,45.380 13.200 C 45.295 13.200,45.322 13.452,45.440 13.760 C 45.558 14.067,45.462 14.438,45.227 14.583 C 44.992 14.728,44.800 14.567,44.800 14.224 C 44.800 13.881,44.609 13.600,44.376 13.600 C 44.143 13.600,44.052 13.760,44.173 13.956 C 44.294 14.152,43.900 14.630,43.297 15.018 L 42.200 15.724 42.962 14.862 C 43.605 14.134,43.626 14.000,43.095 14.000 C 42.133 14.000,41.182 14.447,41.398 14.796 C 41.504 14.968,41.233 15.203,40.796 15.317 C 40.266 15.455,40.000 15.327,40.000 14.933 C 40.000 14.155,38.614 14.417,38.562 15.205 C 38.478 16.450,38.338 16.571,37.988 15.700 C 37.789 15.205,37.421 14.800,37.170 14.800 C 36.919 14.800,36.818 15.070,36.945 15.400 C 37.071 15.730,37.001 16.000,36.787 16.000 C 36.574 16.000,36.400 15.820,36.400 15.600 C 36.400 15.380,36.217 15.200,35.992 15.200 C 35.762 15.200,35.679 15.678,35.802 16.300 C 36.000 17.304,35.984 17.322,35.622 16.500 C 35.404 16.005,35.118 15.600,34.987 15.600 C 34.308 15.600,33.200 16.507,33.200 17.063 C 33.200 17.557,33.078 17.596,32.649 17.241 C 32.216 16.881,32.052 16.956,31.886 17.592 C 31.770 18.036,31.484 18.400,31.250 18.400 C 31.016 18.400,30.941 18.099,31.082 17.731 C 31.280 17.214,31.178 17.123,30.637 17.331 C 30.251 17.479,29.849 17.600,29.744 17.600 C 29.639 17.600,29.638 17.738,29.742 17.907 C 29.846 18.075,29.521 18.407,29.020 18.643 C 28.227 19.017,28.133 18.977,28.301 18.337 C 28.444 17.787,28.271 17.600,27.620 17.600 C 26.928 17.600,26.799 17.767,27.000 18.400 C 27.292 19.320,26.603 19.505,26.255 18.600 C 25.882 17.626,25.117 17.893,25.394 18.900 C 25.622 19.729,25.597 19.745,25.077 19.100 C 24.766 18.715,24.375 18.400,24.207 18.400 C 24.039 18.400,24.130 18.674,24.408 19.010 C 24.686 19.345,24.796 19.737,24.653 19.880 C 24.509 20.024,24.129 19.795,23.809 19.371 C 23.478 18.934,23.220 18.817,23.213 19.100 C 23.206 19.375,23.065 19.579,22.900 19.553 C 22.031 19.415,21.695 19.678,21.872 20.355 C 21.981 20.770,21.870 21.233,21.625 21.385 C 21.380 21.536,21.206 21.511,21.237 21.330 C 21.366 20.590,21.177 20.000,20.813 20.000 C 20.599 20.000,20.522 20.252,20.640 20.560 C 20.758 20.867,20.662 21.238,20.427 21.383 C 20.192 21.528,20.000 21.367,20.000 21.024 C 20.000 20.681,19.801 20.400,19.557 20.400 C 19.314 20.400,19.216 20.664,19.340 20.987 C 19.464 21.310,19.393 21.681,19.183 21.811 C 18.972 21.941,18.800 21.767,18.800 21.424 C 18.800 21.081,18.620 20.800,18.400 20.800 C 18.180 20.800,18.000 21.092,18.000 21.449 C 18.000 22.008,17.907 22.022,17.325 21.549 C 16.737 21.071,16.683 21.086,16.901 21.671 C 17.163 22.370,16.323 23.389,15.863 22.930 C 15.718 22.785,15.600 22.887,15.600 23.157 C 15.600 23.427,15.420 23.536,15.200 23.400 C 14.980 23.264,14.800 23.373,14.800 23.643 C 14.800 23.913,14.706 24.039,14.591 23.924 C 14.250 23.583,14.851 22.385,15.242 22.626 C 15.439 22.748,15.600 22.646,15.600 22.400 C 15.600 22.154,15.780 22.064,16.000 22.200 C 16.220 22.336,16.400 22.257,16.400 22.024 C 16.400 20.808,13.995 22.586,13.899 23.872 C 13.863 24.352,13.699 24.661,13.534 24.559 C 13.370 24.458,13.334 24.065,13.455 23.687 C 13.642 23.104,13.610 23.090,13.244 23.600 C 13.006 23.930,12.809 24.059,12.806 23.886 C 12.803 23.713,12.440 23.765,12.000 24.000 C 11.560 24.235,11.203 24.647,11.206 24.914 C 11.210 25.219,11.356 25.177,11.600 24.800 C 11.813 24.470,11.991 24.391,11.994 24.624 C 11.997 24.856,11.717 25.396,11.370 25.824 C 11.024 26.251,10.855 26.375,10.994 26.100 C 11.402 25.295,10.820 24.685,10.164 25.230 C 9.502 25.780,9.397 26.573,10.040 26.175 C 10.349 25.984,10.345 26.156,10.026 26.752 C 9.512 27.712,8.996 27.908,9.340 27.013 C 9.464 26.690,9.393 26.319,9.183 26.189 C 8.972 26.059,8.800 26.244,8.800 26.600 C 8.800 26.956,8.638 27.147,8.440 27.025 C 8.242 26.903,7.522 27.438,6.840 28.215 C 6.158 28.992,5.600 29.510,5.600 29.365 C 5.600 29.220,5.328 29.328,4.995 29.604 C 4.546 29.977,4.503 30.242,4.830 30.636 C 5.425 31.354,4.903 32.087,4.000 31.800 C 3.597 31.672,3.153 31.753,3.013 31.979 C 2.860 32.227,3.045 32.306,3.479 32.176 C 4.147 31.977,4.146 32.000,3.457 32.481 C 1.485 33.858,0.809 34.491,0.994 34.790 C 1.105 34.969,0.901 35.229,0.540 35.368 C 0.180 35.506,-0.003 35.730,0.133 35.866 C 0.269 36.003,0.655 35.886,0.990 35.608 C 1.365 35.297,1.600 35.265,1.600 35.524 C 1.600 35.756,1.216 36.068,0.747 36.217 C 0.077 36.429,0.013 36.563,0.447 36.838 C 0.857 37.097,0.869 37.189,0.493 37.194 C 0.090 37.199,-0.010 40.996,0.008 55.600 C 0.024 68.539,0.159 74.000,0.464 74.000 C 0.730 74.000,0.686 74.261,0.349 74.677 C -0.024 75.137,-0.040 75.257,0.300 75.053 C 0.578 74.886,0.800 74.947,0.800 75.189 C 0.800 75.429,1.205 75.789,1.700 75.988 C 2.352 76.250,2.414 76.356,1.924 76.375 C 1.552 76.389,1.136 76.220,1.000 76.000 C 0.864 75.780,0.538 75.605,0.276 75.612 C 0.014 75.619,0.119 75.810,0.508 76.037 C 0.898 76.264,1.125 76.598,1.013 76.779 C 0.901 76.961,1.122 77.355,1.504 77.655 C 2.134 78.148,2.148 78.133,1.651 77.500 C 0.903 76.547,1.576 76.632,2.800 77.646 C 3.430 78.168,3.546 78.393,3.113 78.255 C 1.994 77.897,1.914 78.674,2.983 79.515 C 3.527 79.943,3.844 80.437,3.686 80.611 C 3.529 80.786,3.613 80.806,3.872 80.658 C 4.132 80.509,4.465 80.582,4.613 80.821 C 4.760 81.059,5.150 81.151,5.478 81.025 C 6.334 80.697,8.373 82.936,7.748 83.520 C 7.409 83.837,7.092 83.744,6.579 83.177 C 6.136 82.687,6.056 82.400,6.362 82.400 C 6.629 82.400,6.743 82.231,6.616 82.025 C 6.488 81.819,6.029 81.678,5.596 81.710 C 4.896 81.763,4.950 81.916,6.076 83.079 C 6.774 83.799,7.427 84.307,7.526 84.208 C 7.625 84.108,8.057 84.473,8.485 85.017 C 8.914 85.562,9.411 85.917,9.590 85.806 C 9.769 85.695,10.024 85.885,10.155 86.228 C 10.287 86.570,10.557 86.750,10.755 86.628 C 10.954 86.505,11.238 86.719,11.387 87.102 C 11.637 87.748,11.703 87.740,12.279 87.000 C 12.890 86.212,12.897 86.214,12.687 87.100 C 12.571 87.595,12.554 88.000,12.650 88.000 C 12.747 88.000,13.004 87.595,13.222 87.100 C 13.584 86.278,13.600 86.296,13.402 87.300 C 13.279 87.922,13.362 88.400,13.592 88.400 C 13.817 88.400,14.021 87.995,14.047 87.500 C 14.086 86.772,14.153 86.830,14.400 87.800 C 14.675 88.881,14.710 88.903,14.753 88.024 C 14.799 87.078,14.818 87.071,15.387 87.824 C 15.710 88.251,15.983 88.420,15.993 88.200 C 16.017 87.695,16.788 88.859,16.788 89.400 C 16.788 89.620,16.613 89.530,16.400 89.200 C 16.156 88.823,16.010 88.781,16.006 89.086 C 16.003 89.353,16.342 89.755,16.761 89.979 C 17.417 90.330,17.499 90.263,17.356 89.493 C 17.265 89.002,17.298 88.826,17.430 89.102 C 17.561 89.379,17.852 89.491,18.077 89.352 C 18.341 89.189,18.379 89.436,18.185 90.047 C 17.915 90.897,17.953 90.937,18.551 90.440 C 19.139 89.952,19.190 89.977,18.977 90.643 C 18.744 91.372,18.758 91.372,19.363 90.629 C 19.709 90.205,20.109 89.976,20.253 90.120 C 20.396 90.263,20.286 90.655,20.008 90.990 C 19.590 91.494,19.615 91.600,20.151 91.600 C 20.546 91.600,20.800 91.267,20.800 90.751 C 20.800 90.016,20.886 89.974,21.444 90.436 C 21.850 90.774,21.923 91.026,21.641 91.120 C 21.025 91.325,21.507 92.000,22.270 92.000 C 22.688 92.000,22.827 91.747,22.692 91.230 C 22.551 90.690,22.656 90.523,23.045 90.673 C 23.350 90.790,23.601 91.271,23.603 91.743 C 23.605 92.505,23.693 92.467,24.402 91.400 C 24.841 90.740,25.111 89.966,25.004 89.679 C 24.897 89.393,24.977 89.262,25.182 89.389 C 25.387 89.515,26.179 88.994,26.943 88.231 C 28.637 86.536,31.206 85.761,36.255 85.423 C 38.266 85.288,40.786 84.936,41.855 84.640 C 42.925 84.344,45.552 83.620,47.694 83.032 C 49.835 82.443,52.535 81.530,53.694 81.002 C 54.852 80.474,57.497 79.674,59.571 79.224 C 61.644 78.773,64.282 78.053,65.432 77.623 C 66.581 77.192,69.115 76.548,71.061 76.191 C 73.007 75.834,76.400 75.022,78.600 74.386 C 80.800 73.750,84.079 73.036,85.888 72.798 C 87.696 72.560,90.641 71.927,92.433 71.390 C 94.224 70.854,97.785 70.127,100.345 69.774 C 102.905 69.422,106.440 68.718,108.200 68.210 C 109.960 67.702,114.100 66.980,117.399 66.606 C 120.699 66.231,123.518 65.851,123.664 65.760 C 124.636 65.160,132.451 63.990,138.000 63.614 C 141.630 63.368,146.490 62.821,148.800 62.399 C 155.477 61.178,159.119 60.842,170.200 60.426 C 206.249 59.071,238.080 59.755,252.600 62.198 C 255.680 62.717,259.820 63.253,261.800 63.391 C 268.030 63.824,272.887 64.440,276.306 65.231 C 278.124 65.651,282.062 66.267,285.057 66.599 C 288.052 66.931,292.145 67.648,294.151 68.193 C 296.158 68.738,299.848 69.467,302.352 69.814 C 304.855 70.162,308.275 70.871,309.952 71.390 C 311.628 71.910,314.937 72.631,317.305 72.993 C 319.672 73.355,322.850 74.073,324.367 74.589 C 325.884 75.105,328.407 75.726,329.975 75.969 C 331.543 76.212,334.512 76.952,336.574 77.612 C 338.636 78.273,341.335 79.000,342.572 79.229 C 343.809 79.457,346.079 80.180,347.616 80.834 C 350.957 82.256,360.516 84.241,366.518 84.759 C 371.271 85.169,372.620 85.740,373.339 87.643 C 373.579 88.281,374.097 88.904,374.488 89.028 C 375.132 89.232,375.371 89.689,375.252 90.486 C 375.229 90.643,375.476 90.669,375.801 90.544 C 376.137 90.415,376.500 90.595,376.639 90.958 C 377.019 91.949,377.689 91.717,377.386 90.700 C 377.120 89.810,377.124 89.809,377.791 90.600 C 378.420 91.346,378.449 91.349,378.223 90.643 C 378.019 90.003,378.075 89.965,378.591 90.392 C 379.083 90.801,379.200 90.799,379.200 90.382 C 379.200 90.099,379.314 89.980,379.453 90.119 C 379.872 90.539,381.198 89.620,381.232 88.886 C 381.251 88.469,381.342 88.396,381.465 88.700 C 381.763 89.438,382.395 89.307,382.432 88.500 C 382.450 88.082,382.544 88.001,382.665 88.300 C 382.776 88.575,383.051 88.800,383.276 88.800 C 383.501 88.800,383.582 88.530,383.455 88.200 C 383.329 87.870,383.399 87.600,383.613 87.600 C 383.826 87.600,384.000 87.780,384.000 88.000 C 384.000 88.220,384.192 88.400,384.427 88.400 C 384.662 88.400,384.749 88.070,384.621 87.667 C 384.470 87.191,384.588 86.933,384.956 86.933 C 385.291 86.933,385.442 87.193,385.324 87.567 C 385.150 88.119,385.180 88.124,385.556 87.600 C 385.794 87.270,385.996 87.180,386.007 87.400 C 386.017 87.620,386.290 87.451,386.613 87.024 C 386.936 86.596,387.200 86.382,387.200 86.546 C 387.200 87.164,388.973 85.574,389.472 84.509 C 389.968 83.451,389.983 83.446,389.800 84.400 C 389.694 84.950,389.711 85.174,389.838 84.898 C 389.965 84.621,390.230 84.495,390.427 84.617 C 390.624 84.739,392.274 83.374,394.093 81.584 C 395.912 79.794,397.187 78.438,396.928 78.571 C 396.243 78.922,395.794 77.976,396.449 77.561 C 397.230 77.067,397.698 77.118,397.362 77.662 C 397.179 77.957,397.253 78.015,397.565 77.822 C 397.833 77.656,397.959 77.426,397.844 77.310 C 397.728 77.195,398.017 76.791,398.485 76.412 C 399.305 75.748,399.907 74.163,399.165 74.622 C 398.964 74.746,398.800 74.657,398.800 74.424 C 398.800 74.191,398.991 74.000,399.224 74.000 C 399.457 74.000,399.536 73.820,399.400 73.600 C 399.264 73.380,399.337 73.200,399.561 73.200 C 400.326 73.200,400.148 36.542,399.382 36.248 C 399.034 36.115,398.854 35.837,398.981 35.630 C 399.109 35.424,398.805 34.960,398.307 34.600 C 397.473 33.999,397.465 33.956,398.200 34.073 C 398.640 34.143,399.238 34.470,399.530 34.800 C 400.000 35.333,400.025 35.333,399.751 34.800 C 399.269 33.861,396.400 30.293,396.400 30.633 C 396.400 30.800,396.698 31.266,397.062 31.669 C 397.591 32.253,397.611 32.405,397.162 32.425 C 396.853 32.439,397.031 32.623,397.558 32.834 C 398.085 33.045,398.415 33.318,398.292 33.441 C 397.959 33.775,396.344 32.814,396.584 32.425 C 396.698 32.241,396.536 31.879,396.224 31.620 C 395.911 31.360,395.724 30.795,395.807 30.364 C 395.890 29.932,395.788 29.684,395.579 29.813 C 395.371 29.942,395.200 29.797,395.200 29.490 C 395.200 29.184,394.927 28.933,394.593 28.933 C 394.103 28.933,394.135 29.094,394.758 29.767 C 395.393 30.452,395.436 30.686,395.000 31.083 C 394.582 31.464,394.357 31.427,393.935 30.908 C 393.470 30.336,393.494 30.286,394.124 30.522 C 394.603 30.701,394.351 30.186,393.379 29.001 C 392.571 28.015,391.753 27.306,391.560 27.425 C 391.367 27.544,391.327 27.334,391.471 26.959 C 391.704 26.351,391.814 26.377,392.476 27.195 C 392.885 27.700,393.304 28.030,393.406 27.928 C 393.508 27.825,393.073 27.245,392.440 26.638 C 391.604 25.837,391.204 25.670,390.982 26.029 C 390.773 26.368,390.841 26.422,391.200 26.200 C 391.546 25.986,391.627 26.033,391.438 26.338 C 391.040 26.982,390.529 26.914,390.247 26.179 C 390.111 25.823,390.178 25.663,390.405 25.803 C 390.622 25.937,390.800 25.867,390.800 25.647 C 390.800 25.050,390.092 24.727,389.804 25.193 C 389.403 25.842,388.799 25.664,388.806 24.900 C 388.811 24.302,388.869 24.287,389.200 24.800 C 389.413 25.130,389.591 25.205,389.594 24.967 C 389.605 24.203,389.091 23.993,388.462 24.503 C 387.944 24.924,387.894 24.884,388.134 24.243 C 388.381 23.587,388.334 23.557,387.779 24.018 C 387.244 24.461,387.079 24.454,386.776 23.974 C 386.180 23.032,386.352 22.584,386.987 23.424 C 387.310 23.851,387.580 23.997,387.587 23.749 C 387.594 23.501,387.330 23.074,387.000 22.800 C 386.670 22.526,386.395 22.459,386.388 22.651 C 386.381 22.843,386.192 22.685,385.968 22.300 C 385.518 21.528,384.800 21.358,384.800 22.024 C 384.800 22.257,384.961 22.348,385.158 22.226 C 385.549 21.985,386.150 23.183,385.809 23.524 C 385.694 23.639,385.600 23.493,385.600 23.200 C 385.600 22.907,385.491 22.776,385.357 22.909 C 384.944 23.323,384.087 22.238,384.325 21.602 C 384.518 21.085,384.455 21.077,383.875 21.549 C 383.293 22.022,383.200 22.008,383.200 21.449 C 383.200 21.092,382.999 20.800,382.753 20.800 C 382.504 20.800,382.399 21.153,382.516 21.601 C 382.631 22.041,382.562 22.300,382.363 22.177 C 382.163 22.054,382.000 21.603,382.000 21.176 C 382.000 20.749,381.799 20.400,381.553 20.400 C 381.304 20.400,381.199 20.753,381.316 21.201 C 381.431 21.641,381.362 21.900,381.163 21.777 C 380.963 21.654,380.779 21.158,380.754 20.676 C 380.717 19.992,380.667 19.955,380.523 20.505 C 380.422 20.893,380.181 21.112,379.987 20.992 C 379.793 20.872,379.732 20.522,379.850 20.214 C 379.983 19.868,379.601 19.414,378.852 19.027 C 377.298 18.223,377.249 18.229,376.778 19.300 C 376.416 20.122,376.400 20.104,376.598 19.100 C 376.827 17.940,376.150 17.544,375.745 18.600 C 375.397 19.505,374.708 19.320,375.000 18.400 C 375.201 17.767,375.072 17.600,374.384 17.600 C 373.803 17.600,373.586 17.786,373.730 18.161 C 373.868 18.522,373.705 18.686,373.272 18.622 C 372.903 18.568,372.600 18.273,372.600 17.967 C 372.600 17.661,372.259 17.345,371.842 17.265 C 371.292 17.159,371.149 17.290,371.321 17.739 C 371.486 18.167,371.380 18.290,370.980 18.137 C 370.661 18.014,370.400 17.700,370.400 17.437 C 370.400 16.507,366.707 15.039,366.180 15.760 C 365.927 16.105,365.605 16.272,365.464 16.131 C 365.323 15.989,365.407 15.632,365.652 15.337 C 365.994 14.925,365.947 14.800,365.449 14.800 C 365.092 14.800,364.800 14.961,364.800 15.157 C 364.800 15.354,364.518 15.623,364.174 15.755 C 363.693 15.939,363.606 15.810,363.801 15.197 C 364.001 14.567,363.871 14.400,363.180 14.400 C 362.496 14.400,362.353 14.578,362.522 15.223 C 362.685 15.847,362.616 15.946,362.239 15.632 C 361.911 15.360,361.582 15.353,361.274 15.613 C 361.017 15.829,360.889 15.891,360.989 15.751 C 361.306 15.306,360.398 14.000,359.772 14.000 C 359.291 14.000,359.259 14.163,359.610 14.818 C 360.014 15.574,359.985 15.597,359.224 15.122 C 358.771 14.839,358.400 14.381,358.400 14.104 C 358.400 13.827,358.220 13.600,358.000 13.600 C 357.780 13.600,357.600 13.881,357.600 14.224 C 357.600 14.567,357.428 14.741,357.217 14.611 C 357.007 14.481,356.927 14.133,357.040 13.839 C 357.378 12.959,355.897 12.659,355.261 13.478 C 354.737 14.152,354.714 14.140,354.913 13.300 C 355.029 12.805,354.962 12.400,354.763 12.400 C 354.563 12.400,354.400 12.580,354.400 12.800 C 354.400 13.020,354.226 13.200,354.013 13.200 C 353.799 13.200,353.729 12.930,353.855 12.600 C 353.982 12.270,353.881 12.000,353.630 12.000 C 353.380 12.000,353.071 12.270,352.945 12.600 C 352.597 13.505,351.908 13.320,352.200 12.400 C 352.380 11.832,352.272 11.600,351.827 11.600 C 351.445 11.600,351.198 11.952,351.194 12.500 C 351.189 13.146,351.092 13.249,350.849 12.866 C 350.663 12.572,350.351 12.347,350.155 12.366 C 349.960 12.385,349.800 12.175,349.800 11.900 C 349.800 11.612,349.208 11.364,348.400 11.314 C 347.630 11.267,347.225 11.327,347.500 11.448 C 348.253 11.777,348.100 12.348,347.300 12.195 C 346.915 12.122,346.465 12.047,346.300 12.031 C 346.135 12.014,346.000 11.730,346.000 11.400 C 346.000 11.070,345.799 10.800,345.553 10.800 C 345.308 10.800,345.197 11.147,345.308 11.570 C 345.449 12.110,345.344 12.277,344.955 12.127 C 344.650 12.010,344.400 11.603,344.400 11.221 C 344.400 10.080,342.364 9.369,341.675 10.270 C 341.162 10.941,341.140 10.919,341.404 10.000 C 341.638 9.183,341.594 9.091,341.165 9.500 C 340.424 10.206,339.799 10.124,340.400 9.400 C 340.806 8.910,340.783 8.800,340.276 8.800 C 339.934 8.800,339.539 9.163,339.398 9.606 C 339.257 10.049,338.968 10.304,338.755 10.172 C 338.542 10.040,338.477 9.588,338.611 9.166 C 338.797 8.580,338.660 8.400,338.027 8.400 C 337.559 8.400,337.200 8.660,337.200 9.000 C 337.200 9.691,336.851 9.750,336.000 9.200 C 335.467 8.855,335.467 8.811,336.000 8.800 C 337.303 8.773,335.409 8.012,334.024 8.006 C 332.709 8.000,332.682 8.028,333.424 8.630 C 333.851 8.976,333.967 9.140,333.682 8.995 C 333.398 8.850,332.858 8.966,332.482 9.252 C 332.107 9.539,331.932 9.618,332.093 9.427 C 332.254 9.237,332.001 8.748,331.532 8.341 C 330.523 7.466,329.828 7.374,330.127 8.155 C 330.275 8.539,330.112 8.650,329.598 8.515 C 329.162 8.401,328.944 8.090,329.070 7.761 C 329.189 7.452,329.086 7.200,328.843 7.200 C 328.599 7.200,328.400 7.492,328.400 7.849 C 328.400 8.347,328.275 8.394,327.863 8.052 C 327.568 7.807,327.181 7.740,327.004 7.903 C 326.827 8.067,326.779 7.807,326.897 7.326 C 327.186 6.149,326.117 5.773,325.089 6.690 C 324.318 7.378,324.302 7.372,324.574 6.500 C 324.908 5.427,324.221 5.280,323.645 6.300 C 323.328 6.861,323.149 6.900,322.745 6.500 C 322.340 6.099,322.339 6.000,322.744 6.000 C 323.021 6.000,323.136 5.820,323.000 5.600 C 322.624 4.992,321.200 5.122,321.200 5.765 C 321.200 6.087,320.899 6.272,320.500 6.195 C 320.115 6.122,319.654 6.047,319.476 6.031 C 319.298 6.014,319.252 5.839,319.374 5.642 C 319.681 5.145,318.609 4.795,316.867 4.825 C 315.585 4.848,315.514 4.896,316.300 5.212 C 317.564 5.721,317.419 5.921,315.915 5.745 C 315.208 5.663,314.479 5.327,314.295 4.998 C 313.829 4.166,312.754 4.216,313.076 5.055 C 313.250 5.507,313.153 5.648,312.764 5.512 C 312.454 5.403,312.225 5.018,312.256 4.657 C 312.286 4.296,312.151 4.000,311.956 4.000 C 311.618 4.000,311.438 4.611,311.563 5.330 C 311.594 5.511,311.420 5.536,311.175 5.385 C 310.930 5.233,310.816 4.782,310.921 4.381 C 311.142 3.537,310.078 2.962,309.453 3.587 C 308.807 4.233,308.243 4.071,308.800 3.400 C 309.472 2.590,308.844 2.636,307.929 3.464 C 307.058 4.253,306.464 3.887,307.192 3.010 C 307.616 2.499,307.571 2.400,306.910 2.400 C 306.477 2.400,305.927 2.805,305.688 3.300 C 305.449 3.795,305.242 3.964,305.227 3.676 C 305.212 3.388,305.032 3.256,304.828 3.383 C 304.623 3.509,304.342 3.430,304.204 3.207 C 304.066 2.983,304.143 2.800,304.376 2.800 C 304.609 2.800,304.800 2.620,304.800 2.400 C 304.800 2.180,304.164 2.000,303.386 2.000 C 302.044 2.000,301.996 2.046,302.451 2.900 C 302.875 3.696,302.859 3.740,302.308 3.286 C 301.965 3.003,301.530 2.800,301.342 2.833 C 300.476 2.989,299.574 2.766,299.772 2.445 C 300.078 1.950,298.562 1.606,296.200 1.636 L 294.200 1.661 295.600 2.204 L 297.000 2.747 295.600 2.600 C 294.830 2.520,293.975 2.442,293.700 2.427 C 293.425 2.412,293.200 2.130,293.200 1.800 C 293.200 1.470,292.999 1.200,292.753 1.200 C 292.508 1.200,292.392 1.528,292.497 1.929 C 292.696 2.689,291.867 2.859,290.893 2.257 C 290.622 2.090,290.202 2.075,289.960 2.225 C 289.681 2.397,289.703 2.154,290.020 1.563 L 290.519 0.630 290.847 1.515 C 291.248 2.600,291.600 2.660,291.600 1.643 C 291.600 0.754,290.449 0.191,289.853 0.787 C 289.207 1.433,288.643 1.271,289.200 0.600 C 289.478 0.265,289.521 -0.000,289.298 -0.000 C 288.646 0.000,287.910 1.123,288.195 1.682 C 288.340 1.967,288.176 1.851,287.830 1.424 C 287.340 0.819,287.311 0.577,287.700 0.330 C 288.033 0.119,287.899 0.010,287.300 0.006 C 286.805 0.003,286.400 0.180,286.400 0.400 C 286.400 0.620,286.130 0.800,285.800 0.800 C 285.470 0.800,285.200 0.624,285.200 0.409 C 285.200 -0.226,119.321 -0.134,119.064 0.501 C 118.904 0.899,118.857 0.898,118.832 0.500 C 118.814 0.225,118.455 0.000,118.033 0.000 C 117.612 0.000,117.185 0.225,117.086 0.500 C 116.941 0.900,116.735 0.900,116.058 0.500 C 115.103 -0.064,113.829 -0.224,114.700 0.330 C 115.089 0.577,115.060 0.819,114.570 1.424 C 114.224 1.851,114.060 1.967,114.205 1.682 C 114.490 1.123,113.754 0.000,113.102 0.000 C 112.882 0.000,112.929 0.274,113.208 0.610 M35.200 16.847 C 35.200 17.067,34.989 17.117,34.732 16.958 C 34.410 16.759,34.350 16.894,34.541 17.391 C 34.775 18.001,34.724 18.035,34.209 17.608 C 33.538 17.050,33.362 16.206,34.000 16.600 C 34.220 16.736,34.400 16.646,34.400 16.400 C 34.400 16.154,34.580 16.064,34.800 16.200 C 35.020 16.336,35.200 16.627,35.200 16.847 M368.800 16.794 C 368.800 16.963,368.526 17.330,368.191 17.608 C 367.682 18.030,367.623 18.006,367.834 17.457 C 367.978 17.079,367.887 16.800,367.619 16.800 C 367.363 16.800,367.259 16.628,367.389 16.417 C 367.650 15.996,368.800 16.303,368.800 16.794 M378.434 19.379 C 378.635 19.255,378.800 19.354,378.800 19.600 C 378.800 19.846,378.980 19.936,379.200 19.800 C 379.420 19.664,379.600 19.733,379.600 19.953 C 379.600 20.173,379.420 20.464,379.200 20.600 C 378.980 20.736,378.800 20.646,378.800 20.400 C 378.800 20.154,378.620 20.064,378.400 20.200 C 378.180 20.336,378.000 20.246,378.000 20.000 C 378.000 19.754,377.820 19.664,377.600 19.800 C 377.141 20.084,377.054 19.479,377.492 19.042 C 377.652 18.881,377.847 18.942,377.926 19.177 C 378.004 19.413,378.233 19.503,378.434 19.379 M7.345 29.076 C 6.010 30.725,5.333 31.113,5.333 30.229 C 5.333 29.902,5.472 29.721,5.641 29.825 C 5.810 29.930,6.435 29.377,7.030 28.597 C 7.625 27.816,8.207 27.274,8.324 27.391 C 8.441 27.508,8.001 28.266,7.345 29.076 M2.800 34.000 C 1.493 35.023,0.715 35.010,1.944 33.987 C 2.464 33.554,3.094 33.204,3.344 33.209 C 3.595 33.214,3.350 33.570,2.800 34.000 M398.836 75.757 C 398.312 76.387,396.800 76.883,396.800 76.424 C 396.800 76.118,398.311 75.277,398.949 75.227 C 399.141 75.212,399.090 75.451,398.836 75.757 M5.018 80.029 C 5.576 80.932,4.889 80.746,3.968 79.744 C 3.045 78.740,3.041 78.713,3.878 79.148 C 4.360 79.399,4.873 79.795,5.018 80.029 M394.219 81.181 C 392.923 82.491,391.724 83.477,391.556 83.373 C 391.387 83.268,391.064 83.502,390.837 83.892 C 390.610 84.281,390.419 84.411,390.412 84.180 C 390.405 83.949,390.623 83.537,390.897 83.263 C 391.281 82.879,391.285 82.700,390.913 82.470 C 390.570 82.258,390.658 82.031,391.217 81.682 C 391.649 81.412,391.981 81.328,391.954 81.496 C 391.775 82.615,392.237 82.443,393.988 80.736 C 396.836 77.962,397.031 78.339,394.219 81.181 M9.605 84.597 C 9.800 84.476,10.149 84.731,10.380 85.163 C 10.922 86.175,10.907 86.825,10.363 85.892 C 10.136 85.502,9.791 85.282,9.595 85.403 C 9.400 85.524,9.051 85.269,8.820 84.837 C 8.278 83.825,8.293 83.175,8.837 84.108 C 9.064 84.498,9.409 84.718,9.605 84.597 M274.225 126.467 C 211.774 133.588,180.507 202.248,216.511 253.200 C 221.305 259.984,231.554 269.799,237.800 273.588 C 238.680 274.122,240.300 275.219,241.400 276.026 C 245.625 279.125,254.470 283.023,260.400 284.398 C 262.725 284.938,265.377 286.115,265.796 286.794 C 265.934 287.017,266.407 287.200,266.847 287.200 C 267.287 287.200,267.534 287.017,267.396 286.793 C 267.258 286.570,266.949 286.508,266.711 286.655 C 266.449 286.817,266.392 286.737,266.567 286.453 C 266.752 286.154,266.348 285.770,265.456 285.398 C 264.685 285.076,263.954 284.649,263.831 284.450 C 263.708 284.251,263.117 283.966,262.518 283.815 C 239.458 278.028,214.722 255.860,207.999 234.958 C 207.724 234.101,207.052 232.326,206.507 231.013 C 204.078 225.159,201.689 208.438,202.363 202.000 C 205.322 173.739,218.451 152.440,241.600 138.349 C 254.487 130.505,276.180 125.610,288.600 127.743 C 302.285 130.094,305.489 131.006,316.716 135.743 C 321.816 137.896,327.355 141.420,332.962 146.081 C 334.261 147.161,335.839 148.148,336.469 148.274 C 337.100 148.400,338.017 148.927,338.508 149.445 C 338.998 149.962,339.616 150.389,339.880 150.393 C 340.144 150.397,340.507 150.662,340.686 150.982 C 341.211 151.920,341.952 151.141,341.552 150.072 C 341.297 149.391,341.000 149.210,340.432 149.390 C 339.963 149.539,339.530 149.409,339.330 149.059 C 339.148 148.742,338.280 148.070,337.400 147.565 C 336.520 147.061,334.810 145.808,333.600 144.782 C 328.296 140.285,322.341 136.516,317.689 134.715 C 303.640 129.274,304.087 129.420,297.365 128.052 C 287.354 126.014,281.632 125.622,274.225 126.467 " stroke="none" fill="#000000" fill-rule="evenodd"></path><path id="path3" d="M180.200 64.279 C 165.555 65.600,155.251 66.504,149.400 66.980 C 145.440 67.302,139.410 68.008,136.000 68.549 C 132.590 69.090,127.910 69.742,125.600 69.997 C 123.290 70.252,119.060 70.973,116.200 71.599 C 113.340 72.225,109.380 72.942,107.400 73.192 C 105.420 73.442,102.087 74.079,99.994 74.606 C 97.901 75.134,94.481 75.842,92.394 76.180 C 88.512 76.808,79.890 78.814,72.400 80.832 C 70.090 81.454,66.540 82.323,64.512 82.762 C 55.832 84.639,55.578 85.582,61.062 95.567 C 63.186 99.435,65.461 103.590,66.117 104.800 C 70.073 112.097,76.992 124.754,78.800 128.000 C 79.963 130.090,82.031 133.870,83.396 136.400 C 84.760 138.930,87.945 144.780,90.475 149.400 C 93.004 154.020,96.834 161.040,98.986 165.000 C 101.138 168.960,103.568 173.370,104.388 174.800 C 105.207 176.230,106.832 179.200,108.000 181.400 C 109.168 183.600,110.793 186.570,111.612 188.000 C 112.432 189.430,114.810 193.750,116.897 197.600 C 118.985 201.450,122.815 208.470,125.409 213.200 C 128.003 217.930,132.139 225.490,134.601 230.000 C 137.063 234.510,140.659 241.080,142.593 244.600 C 152.608 262.827,155.554 268.215,157.902 272.600 C 159.315 275.240,161.782 279.740,163.382 282.600 C 164.983 285.460,168.230 291.400,170.598 295.800 C 172.965 300.200,175.762 305.330,176.812 307.200 C 177.861 309.070,180.331 313.570,182.299 317.200 C 199.415 348.763,199.030 348.202,201.812 345.589 C 202.564 344.882,206.400 338.776,206.400 338.285 C 206.400 338.211,208.132 335.012,210.248 331.175 C 212.365 327.339,215.315 321.950,216.805 319.200 C 218.294 316.450,221.030 311.410,222.885 308.000 C 224.739 304.590,228.113 298.380,230.381 294.200 C 232.650 290.020,235.134 285.520,235.901 284.200 C 238.605 279.547,238.238 278.185,233.302 274.550 C 207.158 255.294,194.787 226.249,198.818 193.590 C 202.907 160.469,231.534 131.070,266.400 124.185 C 273.292 122.824,292.811 123.054,298.255 124.560 C 299.325 124.856,301.968 125.584,304.129 126.178 C 306.291 126.772,309.821 127.965,311.975 128.829 C 319.214 131.733,319.322 131.666,325.326 120.600 C 327.833 115.980,332.008 108.330,334.603 103.600 C 343.241 87.858,343.311 87.715,343.027 86.205 C 342.694 84.428,341.128 83.494,337.000 82.613 C 335.240 82.237,331.910 81.418,329.600 80.794 C 323.230 79.070,312.146 76.492,309.000 76.003 C 307.460 75.763,304.400 75.136,302.200 74.609 C 300.000 74.083,296.130 73.355,293.600 72.991 C 291.070 72.627,287.200 71.906,285.000 71.387 C 282.800 70.869,278.418 70.156,275.263 69.804 C 272.108 69.451,267.608 68.812,265.263 68.384 C 262.918 67.956,257.495 67.329,253.210 66.989 C 248.926 66.650,242.905 66.107,239.829 65.782 C 225.640 64.285,219.093 64.000,200.400 64.067 C 190.170 64.104,181.080 64.199,180.200 64.279 M161.586 99.222 C 181.799 101.756,194.703 125.131,186.359 144.094 C 171.972 176.788,123.964 166.726,124.006 131.027 C 124.030 110.745,140.736 96.608,161.586 99.222 " stroke="none" fill="#ffffff" fill-rule="evenodd"></path><path id="path4" d="M293.200 2.153 C 293.200 2.517,294.759 2.672,295.256 2.357 C 295.626 2.123,295.384 2.010,294.500 2.006 C 293.785 2.003,293.200 2.069,293.200 2.153 M100.865 2.812 C 101.284 3.057,101.875 3.062,102.465 2.826 C 103.283 2.498,103.199 2.449,101.800 2.438 C 100.580 2.427,100.358 2.516,100.865 2.812 M299.600 2.553 C 299.600 2.910,301.075 3.052,301.806 2.766 C 302.411 2.530,302.243 2.450,301.100 2.428 C 300.275 2.413,299.600 2.469,299.600 2.553 M304.177 3.162 C 304.300 3.362,304.761 3.431,305.200 3.316 C 306.301 3.028,306.202 2.800,304.976 2.800 C 304.413 2.800,304.054 2.963,304.177 3.162 M85.665 5.612 C 86.084 5.857,86.675 5.862,87.265 5.626 C 88.083 5.298,87.999 5.249,86.600 5.238 C 85.380 5.227,85.158 5.316,85.665 5.612 M314.400 5.353 C 314.400 5.717,315.959 5.872,316.456 5.557 C 316.826 5.323,316.584 5.210,315.700 5.206 C 314.985 5.203,314.400 5.269,314.400 5.353 M80.800 5.757 C 80.800 6.146,81.927 6.292,82.436 5.969 C 82.847 5.709,82.701 5.611,81.900 5.606 C 81.295 5.603,80.800 5.671,80.800 5.757 M68.726 8.746 C 69.213 9.054,71.200 8.900,71.200 8.553 C 71.200 8.469,70.525 8.403,69.700 8.406 C 68.744 8.410,68.391 8.533,68.726 8.746 M331.902 8.666 C 332.179 8.777,332.279 9.078,332.126 9.334 C 331.972 9.590,332.196 9.536,332.623 9.213 C 333.050 8.890,333.475 8.575,333.567 8.513 C 333.658 8.451,333.208 8.414,332.567 8.432 C 331.925 8.449,331.626 8.554,331.902 8.666 M54.400 11.757 C 54.400 12.146,55.527 12.292,56.036 11.969 C 56.447 11.709,56.301 11.611,55.500 11.606 C 54.895 11.603,54.400 11.671,54.400 11.757 M346.000 11.757 C 346.000 12.146,347.127 12.292,347.636 11.969 C 348.047 11.709,347.901 11.611,347.100 11.606 C 346.495 11.603,346.000 11.671,346.000 11.757 M360.933 15.394 C 360.933 15.871,361.058 15.893,361.567 15.507 C 361.915 15.243,362.275 14.975,362.367 14.913 C 362.458 14.851,362.173 14.800,361.733 14.800 C 361.293 14.800,360.933 15.067,360.933 15.394 M377.200 19.624 C 377.200 19.857,377.380 19.936,377.600 19.800 C 377.820 19.664,378.000 19.754,378.000 20.000 C 378.000 20.246,378.180 20.336,378.400 20.200 C 378.620 20.064,378.800 20.105,378.800 20.291 C 378.800 20.477,379.205 20.656,379.700 20.688 C 380.420 20.735,380.320 20.596,379.200 19.990 C 377.571 19.110,377.200 19.042,377.200 19.624 M384.467 22.533 C 384.741 22.827,385.222 23.067,385.535 23.067 C 385.950 23.067,385.906 22.921,385.376 22.533 C 384.975 22.240,384.494 22.000,384.308 22.000 C 384.121 22.000,384.193 22.240,384.467 22.533 M394.200 29.600 C 395.506 30.920,396.665 32.000,396.775 32.000 C 396.885 32.000,395.906 30.920,394.600 29.600 C 393.294 28.280,392.135 27.200,392.025 27.200 C 391.915 27.200,392.894 28.280,394.200 29.600 M5.785 30.100 L 3.800 32.200 5.900 30.215 C 7.851 28.371,8.183 28.000,7.885 28.000 C 7.822 28.000,6.877 28.945,5.785 30.100 M187.200 59.871 C 165.046 60.412,156.653 60.965,148.800 62.399 C 146.490 62.821,141.630 63.368,138.000 63.614 C 132.451 63.990,124.636 65.160,123.664 65.760 C 123.518 65.851,120.699 66.231,117.399 66.606 C 114.100 66.980,109.960 67.702,108.200 68.210 C 106.440 68.718,102.905 69.422,100.345 69.774 C 97.785 70.127,94.224 70.854,92.433 71.390 C 90.641 71.927,87.696 72.560,85.888 72.798 C 84.079 73.036,80.800 73.750,78.600 74.386 C 76.400 75.022,73.007 75.834,71.061 76.191 C 69.115 76.548,66.581 77.192,65.432 77.623 C 64.282 78.053,61.644 78.773,59.571 79.224 C 57.497 79.674,54.852 80.474,53.694 81.002 C 52.535 81.530,49.835 82.443,47.694 83.032 C 45.552 83.620,42.925 84.344,41.855 84.640 C 40.786 84.936,38.266 85.288,36.255 85.423 C 31.206 85.761,28.637 86.536,26.943 88.231 C 26.179 88.994,25.357 89.497,25.115 89.348 C 24.865 89.193,24.789 89.259,24.939 89.502 C 25.287 90.065,24.816 91.257,24.358 90.974 C 23.668 90.548,24.011 91.127,25.205 92.405 C 26.344 93.625,26.786 93.176,25.878 91.721 C 25.673 91.393,25.838 91.292,26.400 91.400 C 26.852 91.487,27.141 91.428,27.042 91.268 C 26.008 89.594,29.079 88.769,39.019 88.052 C 44.344 87.667,48.851 86.422,57.000 83.085 C 58.320 82.545,60.390 81.882,61.600 81.613 C 62.810 81.343,66.050 80.528,68.800 79.800 C 78.511 77.231,97.833 72.939,104.600 71.848 C 106.580 71.529,110.990 70.723,114.400 70.058 C 123.051 68.371,135.966 66.519,145.408 65.612 C 149.804 65.190,155.650 64.574,158.400 64.242 C 169.621 62.889,177.298 62.600,202.000 62.601 C 227.295 62.602,232.730 62.826,245.800 64.402 C 249.320 64.827,254.540 65.377,257.400 65.626 C 260.260 65.875,264.220 66.325,266.200 66.625 C 268.180 66.926,272.500 67.548,275.800 68.007 C 279.100 68.465,284.590 69.387,288.000 70.054 C 291.410 70.722,295.820 71.530,297.800 71.850 C 299.780 72.171,303.740 72.958,306.600 73.600 C 309.460 74.241,313.600 75.126,315.800 75.566 C 318.000 76.006,321.150 76.717,322.800 77.147 C 324.450 77.576,327.330 78.299,329.200 78.753 C 337.350 80.734,343.163 82.389,345.306 83.339 C 347.423 84.278,352.068 85.674,357.600 87.034 C 358.810 87.332,361.510 87.678,363.600 87.803 C 370.295 88.203,373.262 89.037,372.992 90.442 C 372.909 90.871,372.988 91.131,373.167 91.020 C 373.347 90.909,373.811 91.170,374.200 91.600 C 374.887 92.359,375.850 92.329,375.377 91.562 C 375.247 91.352,375.289 91.206,375.470 91.237 C 376.299 91.381,376.824 91.162,376.583 90.773 C 376.438 90.538,376.069 90.441,375.764 90.558 C 375.459 90.675,375.229 90.643,375.252 90.486 C 375.371 89.689,375.132 89.232,374.488 89.028 C 374.097 88.904,373.579 88.281,373.339 87.643 C 372.620 85.740,371.271 85.169,366.518 84.759 C 360.516 84.241,350.957 82.256,347.616 80.834 C 346.079 80.180,343.809 79.457,342.572 79.229 C 341.335 79.000,338.636 78.273,336.574 77.612 C 334.512 76.952,331.543 76.212,329.975 75.969 C 328.407 75.726,325.884 75.105,324.367 74.589 C 322.850 74.073,319.672 73.355,317.305 72.993 C 314.937 72.631,311.628 71.910,309.952 71.390 C 308.275 70.871,304.855 70.162,302.352 69.814 C 299.848 69.467,296.158 68.738,294.151 68.193 C 292.145 67.648,288.052 66.931,285.057 66.599 C 282.062 66.267,278.124 65.651,276.306 65.231 C 272.887 64.440,268.030 63.824,261.800 63.391 C 259.820 63.253,255.680 62.715,252.600 62.195 C 241.182 60.268,212.575 59.251,187.200 59.871 M5.600 81.157 C 5.600 81.354,5.896 81.628,6.257 81.767 C 6.619 81.905,6.800 82.133,6.661 82.273 C 6.266 82.668,7.197 83.576,7.771 83.356 C 8.127 83.219,7.947 82.799,7.181 81.980 C 6.048 80.766,5.600 80.533,5.600 81.157 M14.855 88.167 C 15.600 88.805,16.759 89.159,16.581 88.694 C 16.470 88.405,16.003 88.140,15.544 88.106 C 15.085 88.071,14.775 88.099,14.855 88.167 M150.104 101.817 C 127.143 108.001,118.544 133.581,133.600 150.917 C 150.024 169.829,180.450 161.959,185.922 137.384 C 190.466 116.972,169.849 96.500,150.104 101.817 M269.400 125.392 C 196.324 137.110,174.284 231.217,234.721 273.462 C 236.195 274.492,238.677 276.278,240.238 277.431 C 245.128 281.041,252.523 284.278,258.933 285.615 C 262.443 286.346,264.400 287.220,264.400 288.055 C 264.400 288.313,264.896 288.418,265.617 288.312 C 266.536 288.177,266.782 288.269,266.622 288.688 C 266.505 288.992,266.587 289.132,266.805 288.997 C 268.352 288.041,264.653 285.385,260.400 284.398 C 254.470 283.023,245.625 279.125,241.400 276.026 C 240.300 275.219,238.680 274.122,237.800 273.588 C 202.530 252.192,190.660 201.020,212.673 165.266 C 232.209 133.536,272.851 118.085,305.400 130.013 C 307.324 130.719,311.138 132.178,317.689 134.715 C 322.341 136.516,328.296 140.285,333.600 144.782 C 334.810 145.808,336.520 147.061,337.400 147.565 C 338.280 148.070,339.148 148.742,339.330 149.059 C 339.525 149.399,339.965 149.538,340.407 149.398 C 340.950 149.226,341.316 149.467,341.748 150.280 L 342.342 151.400 342.242 150.026 C 342.161 148.893,341.929 148.577,340.922 148.226 C 340.251 147.992,339.274 147.407,338.751 146.926 C 331.666 140.410,323.759 134.989,318.793 133.241 C 316.919 132.582,313.344 131.222,310.849 130.220 C 298.927 125.428,281.693 123.421,269.400 125.392 " stroke="none" fill="#000000" fill-rule="evenodd"></path></g></svg>